<mxfile host="Electron" modified="2024-02-10T21:25:19.379Z" agent="Mozilla/5.0 (X11; Linux x86_64) AppleWebKit/537.36 (KHTML, like Gecko) draw.io/23.0.2 Chrome/120.0.6099.109 Electron/28.1.0 Safari/537.36" etag="bMcMtdGGVJi4VsnNuDJI" version="23.0.2" type="device">
  <diagram name="Page-1" id="IRVGJ-eXqrVsEekjxyVa">
    <mxGraphModel dx="1800" dy="1180" grid="1" gridSize="10" guides="1" tooltips="1" connect="1" arrows="1" fold="1" page="1" pageScale="1" pageWidth="827" pageHeight="1169" math="0" shadow="0">
      <root>
        <mxCell id="0" />
        <mxCell id="1" parent="0" />
        <mxCell id="_IY6v6et4vf0XeT_jkxq-10" style="edgeStyle=orthogonalEdgeStyle;rounded=0;orthogonalLoop=1;jettySize=auto;html=1;entryX=0;entryY=0.5;entryDx=0;entryDy=0;" parent="1" source="_IY6v6et4vf0XeT_jkxq-1" target="_IY6v6et4vf0XeT_jkxq-9" edge="1">
          <mxGeometry relative="1" as="geometry" />
        </mxCell>
        <mxCell id="_IY6v6et4vf0XeT_jkxq-1" value="&lt;font style=&quot;font-size: 20px;&quot;&gt;Input Image&lt;/font&gt;" style="rounded=0;whiteSpace=wrap;html=1;" parent="1" vertex="1">
          <mxGeometry x="40" y="40" width="160" height="120" as="geometry" />
        </mxCell>
        <mxCell id="_IY6v6et4vf0XeT_jkxq-20" style="edgeStyle=orthogonalEdgeStyle;rounded=0;orthogonalLoop=1;jettySize=auto;html=1;entryX=0.417;entryY=1;entryDx=0;entryDy=0;entryPerimeter=0;" parent="1" source="_IY6v6et4vf0XeT_jkxq-2" target="_IY6v6et4vf0XeT_jkxq-18" edge="1">
          <mxGeometry relative="1" as="geometry" />
        </mxCell>
        <mxCell id="_IY6v6et4vf0XeT_jkxq-2" value="" style="rounded=0;whiteSpace=wrap;html=1;" parent="1" vertex="1">
          <mxGeometry x="40" y="280" width="160" height="120" as="geometry" />
        </mxCell>
        <mxCell id="_IY6v6et4vf0XeT_jkxq-3" value="" style="rounded=0;whiteSpace=wrap;html=1;" parent="1" vertex="1">
          <mxGeometry x="60" y="290" width="40" height="50" as="geometry" />
        </mxCell>
        <mxCell id="_IY6v6et4vf0XeT_jkxq-4" value="" style="rounded=0;whiteSpace=wrap;html=1;" parent="1" vertex="1">
          <mxGeometry x="150" y="300" width="30" height="80" as="geometry" />
        </mxCell>
        <mxCell id="_IY6v6et4vf0XeT_jkxq-5" value="" style="rounded=0;whiteSpace=wrap;html=1;" parent="1" vertex="1">
          <mxGeometry x="65" y="350" width="65" height="30" as="geometry" />
        </mxCell>
        <mxCell id="_IY6v6et4vf0XeT_jkxq-6" value="&lt;font style=&quot;font-size: 20px;&quot;&gt;Input Image with proposals&lt;/font&gt;" style="text;html=1;strokeColor=none;fillColor=none;align=center;verticalAlign=middle;whiteSpace=wrap;rounded=0;" parent="1" vertex="1">
          <mxGeometry x="50" y="410" width="140" height="30" as="geometry" />
        </mxCell>
        <mxCell id="_IY6v6et4vf0XeT_jkxq-12" value="" style="edgeStyle=orthogonalEdgeStyle;rounded=0;orthogonalLoop=1;jettySize=auto;html=1;" parent="1" source="_IY6v6et4vf0XeT_jkxq-9" target="_IY6v6et4vf0XeT_jkxq-11" edge="1">
          <mxGeometry relative="1" as="geometry" />
        </mxCell>
        <mxCell id="_IY6v6et4vf0XeT_jkxq-9" value="&lt;font style=&quot;font-size: 16px;&quot;&gt;CNN(feature extractor)&lt;/font&gt;" style="rounded=0;whiteSpace=wrap;html=1;" parent="1" vertex="1">
          <mxGeometry x="270" y="160" width="90" height="80" as="geometry" />
        </mxCell>
        <mxCell id="_IY6v6et4vf0XeT_jkxq-19" value="" style="edgeStyle=orthogonalEdgeStyle;rounded=0;orthogonalLoop=1;jettySize=auto;html=1;" parent="1" source="_IY6v6et4vf0XeT_jkxq-11" target="_IY6v6et4vf0XeT_jkxq-18" edge="1">
          <mxGeometry relative="1" as="geometry" />
        </mxCell>
        <mxCell id="_IY6v6et4vf0XeT_jkxq-11" value="&lt;font style=&quot;font-size: 16px;&quot;&gt;Feature Map (C, H, W)&lt;/font&gt;" style="whiteSpace=wrap;html=1;rounded=0;" parent="1" vertex="1">
          <mxGeometry x="400" y="160" width="120" height="80" as="geometry" />
        </mxCell>
        <mxCell id="_IY6v6et4vf0XeT_jkxq-33" style="edgeStyle=orthogonalEdgeStyle;rounded=0;orthogonalLoop=1;jettySize=auto;html=1;entryX=0;entryY=0.5;entryDx=0;entryDy=0;" parent="1" source="_IY6v6et4vf0XeT_jkxq-18" target="_IY6v6et4vf0XeT_jkxq-29" edge="1">
          <mxGeometry relative="1" as="geometry" />
        </mxCell>
        <mxCell id="_IY6v6et4vf0XeT_jkxq-34" style="edgeStyle=orthogonalEdgeStyle;rounded=0;orthogonalLoop=1;jettySize=auto;html=1;" parent="1" source="_IY6v6et4vf0XeT_jkxq-18" target="_IY6v6et4vf0XeT_jkxq-31" edge="1">
          <mxGeometry relative="1" as="geometry" />
        </mxCell>
        <mxCell id="_IY6v6et4vf0XeT_jkxq-18" value="" style="whiteSpace=wrap;html=1;rounded=0;" parent="1" vertex="1">
          <mxGeometry x="560" y="160" width="120" height="80" as="geometry" />
        </mxCell>
        <mxCell id="_IY6v6et4vf0XeT_jkxq-21" value="" style="rounded=0;whiteSpace=wrap;html=1;" parent="1" vertex="1">
          <mxGeometry x="570" y="170" width="20" height="30" as="geometry" />
        </mxCell>
        <mxCell id="_IY6v6et4vf0XeT_jkxq-35" style="edgeStyle=orthogonalEdgeStyle;rounded=0;orthogonalLoop=1;jettySize=auto;html=1;" parent="1" source="_IY6v6et4vf0XeT_jkxq-22" target="_IY6v6et4vf0XeT_jkxq-30" edge="1">
          <mxGeometry relative="1" as="geometry" />
        </mxCell>
        <mxCell id="_IY6v6et4vf0XeT_jkxq-22" value="" style="rounded=0;whiteSpace=wrap;html=1;" parent="1" vertex="1">
          <mxGeometry x="650" y="175" width="20" height="50" as="geometry" />
        </mxCell>
        <mxCell id="_IY6v6et4vf0XeT_jkxq-23" value="" style="rounded=0;whiteSpace=wrap;html=1;" parent="1" vertex="1">
          <mxGeometry x="570" y="205" width="50" height="20" as="geometry" />
        </mxCell>
        <mxCell id="_IY6v6et4vf0XeT_jkxq-24" value="&lt;font style=&quot;font-size: 20px;&quot;&gt;Proposals scaled&amp;nbsp; to feature&amp;nbsp; map. In the paper, it is called as ROI projection&lt;/font&gt;" style="text;html=1;strokeColor=none;fillColor=none;align=center;verticalAlign=middle;whiteSpace=wrap;rounded=0;" parent="1" vertex="1">
          <mxGeometry x="310" y="340" width="180" height="120" as="geometry" />
        </mxCell>
        <mxCell id="_IY6v6et4vf0XeT_jkxq-27" value="&lt;h1&gt;&lt;font style=&quot;font-size: 20px;&quot;&gt;ROI Pooling&lt;/font&gt;&lt;/h1&gt;&lt;div&gt;&lt;font style=&quot;font-size: 20px;&quot;&gt;This layer will extract a fixed vector for all the proposals irrespective of their size. The output size fixed at the start of training and is a hyper-parameter&lt;/font&gt;&lt;/div&gt;" style="text;html=1;strokeColor=none;fillColor=none;spacing=5;spacingTop=-20;whiteSpace=wrap;overflow=hidden;rounded=0;" parent="1" vertex="1">
          <mxGeometry x="640" y="260" width="230" height="230" as="geometry" />
        </mxCell>
        <mxCell id="_IY6v6et4vf0XeT_jkxq-41" value="" style="edgeStyle=orthogonalEdgeStyle;rounded=0;orthogonalLoop=1;jettySize=auto;html=1;" parent="1" source="_IY6v6et4vf0XeT_jkxq-38" target="_IY6v6et4vf0XeT_jkxq-40" edge="1">
          <mxGeometry relative="1" as="geometry" />
        </mxCell>
        <mxCell id="_IY6v6et4vf0XeT_jkxq-29" value="" style="rounded=0;whiteSpace=wrap;html=1;" parent="1" vertex="1">
          <mxGeometry x="840" y="120" width="40" height="40" as="geometry" />
        </mxCell>
        <mxCell id="_IY6v6et4vf0XeT_jkxq-54" value="" style="edgeStyle=orthogonalEdgeStyle;rounded=0;orthogonalLoop=1;jettySize=auto;html=1;" parent="1" source="_IY6v6et4vf0XeT_jkxq-50" target="_IY6v6et4vf0XeT_jkxq-52" edge="1">
          <mxGeometry relative="1" as="geometry" />
        </mxCell>
        <mxCell id="_IY6v6et4vf0XeT_jkxq-30" value="" style="rounded=0;whiteSpace=wrap;html=1;" parent="1" vertex="1">
          <mxGeometry x="840" y="180" width="40" height="40" as="geometry" />
        </mxCell>
        <mxCell id="_IY6v6et4vf0XeT_jkxq-59" value="" style="edgeStyle=orthogonalEdgeStyle;rounded=0;orthogonalLoop=1;jettySize=auto;html=1;" parent="1" source="_IY6v6et4vf0XeT_jkxq-31" target="_IY6v6et4vf0XeT_jkxq-57" edge="1">
          <mxGeometry relative="1" as="geometry" />
        </mxCell>
        <mxCell id="_IY6v6et4vf0XeT_jkxq-31" value="" style="rounded=0;whiteSpace=wrap;html=1;" parent="1" vertex="1">
          <mxGeometry x="840" y="240" width="40" height="40" as="geometry" />
        </mxCell>
        <mxCell id="_IY6v6et4vf0XeT_jkxq-37" value="&lt;font style=&quot;font-size: 16px;&quot;&gt;Output of ROI pooling is (C, O, O)&lt;/font&gt;" style="text;html=1;strokeColor=none;fillColor=none;align=center;verticalAlign=middle;whiteSpace=wrap;rounded=0;" parent="1" vertex="1">
          <mxGeometry x="770" y="80" width="140" height="30" as="geometry" />
        </mxCell>
        <mxCell id="_IY6v6et4vf0XeT_jkxq-43" value="" style="edgeStyle=orthogonalEdgeStyle;rounded=0;orthogonalLoop=1;jettySize=auto;html=1;" parent="1" source="_IY6v6et4vf0XeT_jkxq-40" target="_IY6v6et4vf0XeT_jkxq-42" edge="1">
          <mxGeometry relative="1" as="geometry" />
        </mxCell>
        <mxCell id="_IY6v6et4vf0XeT_jkxq-40" value="&lt;font style=&quot;font-size: 14px;&quot;&gt;FC&lt;/font&gt;" style="rounded=0;whiteSpace=wrap;html=1;" parent="1" vertex="1">
          <mxGeometry x="950" y="120" width="20" height="40" as="geometry" />
        </mxCell>
        <mxCell id="_IY6v6et4vf0XeT_jkxq-68" style="edgeStyle=orthogonalEdgeStyle;rounded=0;orthogonalLoop=1;jettySize=auto;html=1;entryX=0;entryY=0.5;entryDx=0;entryDy=0;" parent="1" source="_IY6v6et4vf0XeT_jkxq-42" target="_IY6v6et4vf0XeT_jkxq-60" edge="1">
          <mxGeometry relative="1" as="geometry" />
        </mxCell>
        <mxCell id="_IY6v6et4vf0XeT_jkxq-69" value="" style="edgeStyle=orthogonalEdgeStyle;rounded=0;orthogonalLoop=1;jettySize=auto;html=1;" parent="1" source="_IY6v6et4vf0XeT_jkxq-42" target="_IY6v6et4vf0XeT_jkxq-66" edge="1">
          <mxGeometry relative="1" as="geometry" />
        </mxCell>
        <mxCell id="_IY6v6et4vf0XeT_jkxq-42" value="&lt;font style=&quot;font-size: 16px;&quot;&gt;ROI vector&lt;/font&gt;" style="rounded=0;whiteSpace=wrap;html=1;" parent="1" vertex="1">
          <mxGeometry x="990" y="120" width="50" height="40" as="geometry" />
        </mxCell>
        <mxCell id="_IY6v6et4vf0XeT_jkxq-51" value="" style="edgeStyle=orthogonalEdgeStyle;rounded=0;orthogonalLoop=1;jettySize=auto;html=1;" parent="1" source="_IY6v6et4vf0XeT_jkxq-52" target="_IY6v6et4vf0XeT_jkxq-53" edge="1">
          <mxGeometry relative="1" as="geometry" />
        </mxCell>
        <mxCell id="_IY6v6et4vf0XeT_jkxq-52" value="&lt;font style=&quot;font-size: 14px;&quot;&gt;FC&lt;/font&gt;" style="rounded=0;whiteSpace=wrap;html=1;" parent="1" vertex="1">
          <mxGeometry x="950" y="180" width="20" height="40" as="geometry" />
        </mxCell>
        <mxCell id="_IY6v6et4vf0XeT_jkxq-78" style="edgeStyle=orthogonalEdgeStyle;rounded=0;orthogonalLoop=1;jettySize=auto;html=1;" parent="1" source="_IY6v6et4vf0XeT_jkxq-53" target="_IY6v6et4vf0XeT_jkxq-73" edge="1">
          <mxGeometry relative="1" as="geometry" />
        </mxCell>
        <mxCell id="_IY6v6et4vf0XeT_jkxq-79" style="edgeStyle=orthogonalEdgeStyle;rounded=0;orthogonalLoop=1;jettySize=auto;html=1;entryX=0;entryY=0.5;entryDx=0;entryDy=0;" parent="1" source="_IY6v6et4vf0XeT_jkxq-53" target="_IY6v6et4vf0XeT_jkxq-76" edge="1">
          <mxGeometry relative="1" as="geometry" />
        </mxCell>
        <mxCell id="_IY6v6et4vf0XeT_jkxq-53" value="&lt;font style=&quot;font-size: 16px;&quot;&gt;ROI vector&lt;/font&gt;" style="rounded=0;whiteSpace=wrap;html=1;" parent="1" vertex="1">
          <mxGeometry x="990" y="180" width="50" height="40" as="geometry" />
        </mxCell>
        <mxCell id="_IY6v6et4vf0XeT_jkxq-55" value="&lt;font style=&quot;font-size: 14px;&quot;&gt;FC&lt;/font&gt;" style="rounded=0;whiteSpace=wrap;html=1;" parent="1" vertex="1">
          <mxGeometry x="910" y="240" width="20" height="40" as="geometry" />
        </mxCell>
        <mxCell id="_IY6v6et4vf0XeT_jkxq-56" value="" style="edgeStyle=orthogonalEdgeStyle;rounded=0;orthogonalLoop=1;jettySize=auto;html=1;" parent="1" source="_IY6v6et4vf0XeT_jkxq-57" target="_IY6v6et4vf0XeT_jkxq-58" edge="1">
          <mxGeometry relative="1" as="geometry" />
        </mxCell>
        <mxCell id="_IY6v6et4vf0XeT_jkxq-57" value="&lt;font style=&quot;font-size: 14px;&quot;&gt;FC&lt;/font&gt;" style="rounded=0;whiteSpace=wrap;html=1;" parent="1" vertex="1">
          <mxGeometry x="950" y="240" width="20" height="40" as="geometry" />
        </mxCell>
        <mxCell id="_IY6v6et4vf0XeT_jkxq-86" style="edgeStyle=orthogonalEdgeStyle;rounded=0;orthogonalLoop=1;jettySize=auto;html=1;entryX=0;entryY=0.25;entryDx=0;entryDy=0;" parent="1" source="_IY6v6et4vf0XeT_jkxq-58" target="_IY6v6et4vf0XeT_jkxq-81" edge="1">
          <mxGeometry relative="1" as="geometry" />
        </mxCell>
        <mxCell id="_IY6v6et4vf0XeT_jkxq-87" style="edgeStyle=orthogonalEdgeStyle;rounded=0;orthogonalLoop=1;jettySize=auto;html=1;entryX=0;entryY=0.5;entryDx=0;entryDy=0;" parent="1" source="_IY6v6et4vf0XeT_jkxq-58" target="_IY6v6et4vf0XeT_jkxq-84" edge="1">
          <mxGeometry relative="1" as="geometry" />
        </mxCell>
        <mxCell id="_IY6v6et4vf0XeT_jkxq-58" value="&lt;font style=&quot;font-size: 16px;&quot;&gt;ROI vector&lt;/font&gt;" style="rounded=0;whiteSpace=wrap;html=1;" parent="1" vertex="1">
          <mxGeometry x="990" y="240" width="50" height="40" as="geometry" />
        </mxCell>
        <mxCell id="_IY6v6et4vf0XeT_jkxq-65" value="" style="edgeStyle=orthogonalEdgeStyle;rounded=0;orthogonalLoop=1;jettySize=auto;html=1;" parent="1" source="_IY6v6et4vf0XeT_jkxq-60" target="_IY6v6et4vf0XeT_jkxq-64" edge="1">
          <mxGeometry relative="1" as="geometry" />
        </mxCell>
        <mxCell id="_IY6v6et4vf0XeT_jkxq-60" value="&lt;font style=&quot;font-size: 16px;&quot;&gt;classification head&lt;/font&gt;" style="whiteSpace=wrap;html=1;rounded=0;" parent="1" vertex="1">
          <mxGeometry x="1080" y="10" width="100" height="40" as="geometry" />
        </mxCell>
        <mxCell id="_IY6v6et4vf0XeT_jkxq-64" value="&lt;font style=&quot;font-size: 16px;&quot;&gt;Generates (N+1) class probabilities&lt;/font&gt;" style="text;html=1;strokeColor=none;fillColor=none;align=center;verticalAlign=middle;whiteSpace=wrap;rounded=0;" parent="1" vertex="1">
          <mxGeometry x="1210" y="15" width="170" height="30" as="geometry" />
        </mxCell>
        <mxCell id="_IY6v6et4vf0XeT_jkxq-71" value="" style="edgeStyle=orthogonalEdgeStyle;rounded=0;orthogonalLoop=1;jettySize=auto;html=1;" parent="1" source="_IY6v6et4vf0XeT_jkxq-66" target="_IY6v6et4vf0XeT_jkxq-70" edge="1">
          <mxGeometry relative="1" as="geometry" />
        </mxCell>
        <mxCell id="_IY6v6et4vf0XeT_jkxq-66" value="&lt;font style=&quot;font-size: 16px;&quot;&gt;regression head&lt;/font&gt;" style="whiteSpace=wrap;html=1;rounded=0;" parent="1" vertex="1">
          <mxGeometry x="1080" y="70" width="100" height="40" as="geometry" />
        </mxCell>
        <mxCell id="_IY6v6et4vf0XeT_jkxq-70" value="&lt;font style=&quot;font-size: 16px;&quot;&gt;Generates N*4 regression cooridnates&lt;/font&gt;" style="text;html=1;strokeColor=none;fillColor=none;align=center;verticalAlign=middle;whiteSpace=wrap;rounded=0;" parent="1" vertex="1">
          <mxGeometry x="1210" y="75" width="164" height="30" as="geometry" />
        </mxCell>
        <mxCell id="_IY6v6et4vf0XeT_jkxq-72" value="" style="edgeStyle=orthogonalEdgeStyle;rounded=0;orthogonalLoop=1;jettySize=auto;html=1;" parent="1" source="_IY6v6et4vf0XeT_jkxq-73" target="_IY6v6et4vf0XeT_jkxq-74" edge="1">
          <mxGeometry relative="1" as="geometry" />
        </mxCell>
        <mxCell id="_IY6v6et4vf0XeT_jkxq-73" value="&lt;font style=&quot;font-size: 16px;&quot;&gt;classification head&lt;/font&gt;" style="whiteSpace=wrap;html=1;rounded=0;" parent="1" vertex="1">
          <mxGeometry x="1080" y="157.5" width="100" height="40" as="geometry" />
        </mxCell>
        <mxCell id="_IY6v6et4vf0XeT_jkxq-74" value="&lt;font style=&quot;font-size: 16px;&quot;&gt;Generates (N+1) class probabilities&lt;/font&gt;" style="text;html=1;strokeColor=none;fillColor=none;align=center;verticalAlign=middle;whiteSpace=wrap;rounded=0;" parent="1" vertex="1">
          <mxGeometry x="1210" y="162.5" width="170" height="30" as="geometry" />
        </mxCell>
        <mxCell id="_IY6v6et4vf0XeT_jkxq-75" value="" style="edgeStyle=orthogonalEdgeStyle;rounded=0;orthogonalLoop=1;jettySize=auto;html=1;" parent="1" source="_IY6v6et4vf0XeT_jkxq-76" target="_IY6v6et4vf0XeT_jkxq-77" edge="1">
          <mxGeometry relative="1" as="geometry" />
        </mxCell>
        <mxCell id="_IY6v6et4vf0XeT_jkxq-76" value="&lt;font style=&quot;font-size: 16px;&quot;&gt;regression head&lt;/font&gt;" style="whiteSpace=wrap;html=1;rounded=0;" parent="1" vertex="1">
          <mxGeometry x="1080" y="210" width="100" height="40" as="geometry" />
        </mxCell>
        <mxCell id="_IY6v6et4vf0XeT_jkxq-77" value="&lt;font style=&quot;font-size: 16px;&quot;&gt;Generates N*4 regression cooridnates&lt;/font&gt;" style="text;html=1;strokeColor=none;fillColor=none;align=center;verticalAlign=middle;whiteSpace=wrap;rounded=0;" parent="1" vertex="1">
          <mxGeometry x="1210" y="215" width="180" height="30" as="geometry" />
        </mxCell>
        <mxCell id="_IY6v6et4vf0XeT_jkxq-80" value="" style="edgeStyle=orthogonalEdgeStyle;rounded=0;orthogonalLoop=1;jettySize=auto;html=1;" parent="1" source="_IY6v6et4vf0XeT_jkxq-81" target="_IY6v6et4vf0XeT_jkxq-82" edge="1">
          <mxGeometry relative="1" as="geometry" />
        </mxCell>
        <mxCell id="_IY6v6et4vf0XeT_jkxq-81" value="&lt;font style=&quot;font-size: 16px;&quot;&gt;classification head&lt;/font&gt;" style="whiteSpace=wrap;html=1;rounded=0;" parent="1" vertex="1">
          <mxGeometry x="1080" y="270" width="100" height="40" as="geometry" />
        </mxCell>
        <mxCell id="_IY6v6et4vf0XeT_jkxq-82" value="&lt;font style=&quot;font-size: 16px;&quot;&gt;Generates (N+1) class probabilities&lt;/font&gt;" style="text;html=1;strokeColor=none;fillColor=none;align=center;verticalAlign=middle;whiteSpace=wrap;rounded=0;" parent="1" vertex="1">
          <mxGeometry x="1215" y="275" width="170" height="30" as="geometry" />
        </mxCell>
        <mxCell id="_IY6v6et4vf0XeT_jkxq-83" value="" style="edgeStyle=orthogonalEdgeStyle;rounded=0;orthogonalLoop=1;jettySize=auto;html=1;" parent="1" source="_IY6v6et4vf0XeT_jkxq-84" target="_IY6v6et4vf0XeT_jkxq-85" edge="1">
          <mxGeometry relative="1" as="geometry" />
        </mxCell>
        <mxCell id="_IY6v6et4vf0XeT_jkxq-84" value="&lt;font style=&quot;font-size: 16px;&quot;&gt;regression head&lt;/font&gt;" style="whiteSpace=wrap;html=1;rounded=0;" parent="1" vertex="1">
          <mxGeometry x="1080" y="330" width="100" height="40" as="geometry" />
        </mxCell>
        <mxCell id="_IY6v6et4vf0XeT_jkxq-85" value="&lt;font style=&quot;font-size: 16px;&quot;&gt;Generates N*4 regression cooridnates&lt;/font&gt;" style="text;html=1;strokeColor=none;fillColor=none;align=center;verticalAlign=middle;whiteSpace=wrap;rounded=0;" parent="1" vertex="1">
          <mxGeometry x="1215" y="335" width="180" height="30" as="geometry" />
        </mxCell>
        <mxCell id="_IY6v6et4vf0XeT_jkxq-88" value="" style="endArrow=none;dashed=1;html=1;rounded=0;" parent="1" edge="1">
          <mxGeometry width="50" height="50" relative="1" as="geometry">
            <mxPoint x="910" y="10" as="sourcePoint" />
            <mxPoint x="910" y="400" as="targetPoint" />
          </mxGeometry>
        </mxCell>
        <mxCell id="_IY6v6et4vf0XeT_jkxq-89" value="" style="endArrow=none;dashed=1;html=1;rounded=0;" parent="1" edge="1">
          <mxGeometry width="50" height="50" relative="1" as="geometry">
            <mxPoint x="1400" y="10" as="sourcePoint" />
            <mxPoint x="910" y="10" as="targetPoint" />
          </mxGeometry>
        </mxCell>
        <mxCell id="_IY6v6et4vf0XeT_jkxq-90" value="" style="endArrow=none;dashed=1;html=1;rounded=0;" parent="1" edge="1">
          <mxGeometry width="50" height="50" relative="1" as="geometry">
            <mxPoint x="1400" y="399" as="sourcePoint" />
            <mxPoint x="910" y="399" as="targetPoint" />
          </mxGeometry>
        </mxCell>
        <mxCell id="_IY6v6et4vf0XeT_jkxq-91" value="" style="endArrow=none;dashed=1;html=1;rounded=0;" parent="1" edge="1">
          <mxGeometry width="50" height="50" relative="1" as="geometry">
            <mxPoint x="1400" y="10" as="sourcePoint" />
            <mxPoint x="1400" y="400" as="targetPoint" />
          </mxGeometry>
        </mxCell>
        <mxCell id="_IY6v6et4vf0XeT_jkxq-92" value="&lt;font style=&quot;font-size: 20px;&quot;&gt;Even though in digram, I have shown layers for each ROI differently, they are same and each roi is processed through same set of layer. So don&#39;t consider them as seperate layer for each ROI&lt;/font&gt;" style="text;html=1;strokeColor=none;fillColor=none;align=center;verticalAlign=middle;whiteSpace=wrap;rounded=0;" parent="1" vertex="1">
          <mxGeometry x="930" y="400" width="440" height="120" as="geometry" />
        </mxCell>
        <mxCell id="_IY6v6et4vf0XeT_jkxq-93" value="&lt;font style=&quot;font-size: 16px;&quot;&gt;Two MLP Head&lt;/font&gt;" style="text;html=1;strokeColor=none;fillColor=none;align=center;verticalAlign=middle;whiteSpace=wrap;rounded=0;" parent="1" vertex="1">
          <mxGeometry x="910" y="80" width="80" height="30" as="geometry" />
        </mxCell>
        <mxCell id="PV5zcn8_iULhTjm_iK8Z-2" value="" style="edgeStyle=orthogonalEdgeStyle;rounded=0;orthogonalLoop=1;jettySize=auto;html=1;" edge="1" parent="1" source="_IY6v6et4vf0XeT_jkxq-29" target="_IY6v6et4vf0XeT_jkxq-38">
          <mxGeometry relative="1" as="geometry">
            <mxPoint x="880" y="140" as="sourcePoint" />
            <mxPoint x="960" y="140" as="targetPoint" />
          </mxGeometry>
        </mxCell>
        <mxCell id="_IY6v6et4vf0XeT_jkxq-38" value="&lt;font style=&quot;font-size: 14px;&quot;&gt;FC&lt;/font&gt;" style="rounded=0;whiteSpace=wrap;html=1;" parent="1" vertex="1">
          <mxGeometry x="910" y="120" width="20" height="40" as="geometry" />
        </mxCell>
        <mxCell id="PV5zcn8_iULhTjm_iK8Z-3" value="" style="edgeStyle=orthogonalEdgeStyle;rounded=0;orthogonalLoop=1;jettySize=auto;html=1;" edge="1" parent="1" source="_IY6v6et4vf0XeT_jkxq-30" target="_IY6v6et4vf0XeT_jkxq-50">
          <mxGeometry relative="1" as="geometry">
            <mxPoint x="880" y="200" as="sourcePoint" />
            <mxPoint x="960" y="200" as="targetPoint" />
          </mxGeometry>
        </mxCell>
        <mxCell id="_IY6v6et4vf0XeT_jkxq-50" value="&lt;font style=&quot;font-size: 14px;&quot;&gt;FC&lt;/font&gt;" style="rounded=0;whiteSpace=wrap;html=1;" parent="1" vertex="1">
          <mxGeometry x="910" y="180" width="20" height="40" as="geometry" />
        </mxCell>
      </root>
    </mxGraphModel>
  </diagram>
</mxfile>
